<?xml version="1.0" encoding="UTF-8"?>
<svg width="44px" height="44px" viewBox="0 0 44 44" version="1.1" xmlns="http://www.w3.org/2000/svg" xmlns:xlink="http://www.w3.org/1999/xlink">
    <!-- Generator: Sketch 47.1 (45422) - http://www.bohemiancoding.com/sketch -->
    <title>SoundCloud</title>
    <desc>Created with Sketch.</desc>
    <defs></defs>
    <g id="Page-1" stroke="none" stroke-width="1" fill="none" fill-rule="evenodd">
        <g id="SoundCloud" fill="#FF5500">
            <g id="icon" transform="translate(0.000000, 11.600000)">
                <g id="cloud" transform="translate(21.185185, 0.000000)">
                    <ellipse id="small" cx="1.52098765" cy="18.8425926" rx="1.52098765" ry="1.52777778"></ellipse>
                    <ellipse id="medium" cx="16.7308642" cy="14.2592593" rx="6.08395062" ry="6.11111111"></ellipse>
                    <rect id="Rectangle" x="1.52098765" y="13.2407407" width="15.2098765" height="7.12962963"></rect>
                    <path d="M-9.78044196e-07,18.5458039 C0.963623028,19.695914 2.40924416,20.3703704 4.56296296,20.3703704 C10.1630849,20.3703704 14.7028807,15.8103076 14.7028807,10.1851852 C14.7028807,4.56006273 10.1630849,0 4.56296296,0 C2.40924416,0 0.963623028,0.674456359 -9.78044197e-07,1.82456645 L-7.50621624e-15,18.5458057 Z" id="Combined-Shape"></path>
                </g>
                <g id="bars" transform="translate(0.000000, 2.444444)">
                    <path d="M20.1134336,0.746150519 L20.3680632,8.96296296 L20.1100144,17.1078793 C20.1122767,17.1312925 20.1134336,17.1550203 20.1134336,17.1790123 C20.1134336,17.5915213 19.7714289,17.9259259 19.3495447,17.9259259 C18.9276605,17.9259259 18.5856558,17.5915213 18.5856558,17.1790123 C18.5856558,17.1734194 18.5857187,17.1678407 18.5858438,17.1622771 L18.5856558,17.1622771 L18.3333333,8.96296296 L18.5856558,0.746150519 C18.5860777,0.33399229 18.9279207,0 19.3495447,0 C19.7711687,0 20.1130118,0.33399229 20.1134332,0.746150519 Z" id="bar"></path>
                    <path d="M17.0578781,3.73380484 L17.3125077,10.4567901 L17.0547313,17.1107579 C17.056814,17.1332368 17.0578781,17.156003 17.0578781,17.1790123 C17.0578781,17.5915213 16.7158733,17.9259259 16.2939892,17.9259259 C15.872105,17.9259259 15.5301003,17.5915213 15.5301003,17.1790123 C15.5301003,17.1734194 15.5301631,17.1678407 15.5302882,17.1622771 L15.5301003,17.1622771 L15.2777778,10.4567901 L15.5301003,3.73380484 C15.5305221,3.32164661 15.8723651,2.98765432 16.2939892,2.98765432 C16.7156132,2.98765432 17.0574562,3.32164661 17.0578777,3.73380484 Z" id="bar"></path>
                    <path d="M14.0023225,2.73792007 L14.2569521,9.95884774 L13.9990762,17.1096921 C14.0012245,17.132517 14.0023225,17.1556393 14.0023225,17.1790123 C14.0023225,17.5915213 13.6603178,17.9259259 13.2384336,17.9259259 C12.8165494,17.9259259 12.4745447,17.5915213 12.4745447,17.1790123 C12.4745447,17.1734194 12.4746076,17.1678407 12.4747327,17.1622771 L12.4745447,17.1622771 L12.2222222,9.95884774 L12.4745447,2.73792007 C12.4749666,2.32576184 12.8168096,1.99176955 13.2384336,1.99176955 C13.6600576,1.99176955 14.0019007,2.32576184 14.0023221,2.73792007 Z" id="bar"></path>
                    <path d="M10.9467669,4.72968961 L11.2013966,10.9547325 L10.9437302,17.1119557 C10.9457403,17.1340453 10.9467669,17.1564116 10.9467669,17.1790123 C10.9467669,17.5915213 10.6047622,17.9259259 10.1828781,17.9259259 C9.76099387,17.9259259 9.41898916,17.5915213 9.41898916,17.1790123 C9.41898916,17.1734194 9.41905203,17.1678407 9.41917712,17.1622771 L9.41898916,17.1622771 L9.16666667,10.9547325 L9.41898916,4.72968961 C9.419411,4.31753138 9.76125403,3.98353909 10.1828781,3.98353909 C10.6045021,3.98353909 10.9463451,4.31753138 10.9467665,4.72968961 Z" id="bar"></path>
                    <path d="M7.89121138,8.71322871 L8.14584101,12.9465021 L7.88875529,17.1186785 C7.89038226,17.13858 7.89121138,17.1587015 7.89121138,17.1790123 C7.89121138,17.5915213 7.54920668,17.9259259 7.12732249,17.9259259 C6.70543831,17.9259259 6.36343361,17.5915213 6.36343361,17.1790123 C6.36343361,17.1734194 6.36349648,17.1678407 6.36362157,17.1622771 L6.36343361,17.1622771 L6.11111111,12.9465021 L6.36343361,8.71322871 C6.36385545,8.30107048 6.70569848,7.96707819 7.12732249,7.96707819 C7.54894651,7.96707819 7.89078954,8.30107048 7.89121099,8.71322871 Z" id="bar"></path>
                    <path d="M4.83565583,7.71734393 L5.09028546,12.4485597 L4.83356855,17.123375 C4.83495191,17.1417441 4.83565583,17.1602978 4.83565583,17.1790123 C4.83565583,17.5915213 4.49365112,17.9259259 4.07176694,17.9259259 C3.64988276,17.9259259 3.30787805,17.5915213 3.30787805,17.1790123 L3.05555556,12.4485597 L3.30787805,7.71734393 C3.30829989,7.30518571 3.65014292,6.97119342 4.07176694,6.97119342 C4.49339096,6.97119342 4.83523399,7.30518571 4.83565544,7.71734393 Z" id="bar"></path>
                    <path d="M1.78010027,9.70911348 L2.0347299,12.4485597 L1.77829707,15.1355167 C1.77949266,15.1526071 1.78010027,15.1698556 1.78010027,15.1872428 C1.78010027,15.5997518 1.43809557,15.9341564 1.01621138,15.9341564 C0.5943272,15.9341564 0.252322495,15.5997518 0.252322495,15.1872428 C0.252322495,15.1816498 0.252385366,15.1760712 0.252510455,15.1705076 L0.252322495,15.1705076 L0,12.4485597 L0.252322495,9.70911348 C0.252744336,9.29695525 0.594587365,8.96296296 1.01621138,8.96296296 C1.4378354,8.96296296 1.77967843,9.29695525 1.78009988,9.70911348 Z" id="bar"></path>
                </g>
            </g>
        </g>
    </g>
</svg>